<svg width="1071" height="256" viewBox="0 0 1071 256" fill="none" xmlns="http://www.w3.org/2000/svg">
<path fill-rule="evenodd" clip-rule="evenodd" d="M487.953 211.398V45H518.52V211.398H487.953ZM466.11 154.878C466.11 189.586 440.6 214.875 406.809 214.875C373.017 214.875 347.508 189.586 347.508 154.878C347.508 119.948 373.017 94.8813 406.809 94.8813C440.6 94.8813 466.11 119.917 466.11 154.878ZM435.543 154.878C435.543 133.509 421.761 122.699 406.809 122.699C391.857 122.699 378.075 133.509 378.075 154.878C378.075 176.025 391.857 187.058 406.809 187.058C421.761 187.058 435.543 176.247 435.543 154.878ZM582.184 197.173L555.536 256H587.937L658.966 98.3268H626.312L598.495 164.519L568.37 98.3268H534.136L582.184 197.173ZM675.277 211.398V98.3268H704.453V112.109C710.649 101.077 725.127 95.1025 737.55 95.1025C752.944 95.1025 765.367 101.772 771.12 113.942C780.097 100.16 792.046 95.1025 806.966 95.1025C827.892 95.1025 847.87 107.747 847.87 138.093V211.429H818.219V144.288C818.219 132.118 812.245 122.92 798.21 122.92C785.123 122.92 777.284 133.035 777.284 145.205V211.398H746.938V144.288C746.938 132.118 740.742 122.92 726.928 122.92C713.589 122.92 705.781 132.814 705.781 145.205V211.398H675.277ZM926.517 214.843C954.334 214.843 974.47 199.575 978.358 171.41H952.469C948.802 181.526 940.995 188.638 926.738 188.638C911.565 188.638 898.921 177.859 898.226 162.907H979.148C979.148 162.8 979.176 162.45 979.218 161.918C979.35 160.25 979.623 156.796 979.623 153.487C979.623 117.167 958.696 94.8813 923.767 94.8813C894.78 94.8813 868.132 118.305 868.132 154.404C868.132 192.558 895.475 214.843 926.517 214.843ZM924.209 119.696C941.69 119.696 949.024 130.728 949.498 141.981H898.921C899.616 131.644 908.341 119.696 924.209 119.696ZM1070.41 128.673C1066.96 127.978 1063.96 127.756 1061.21 127.756C1045.59 127.756 1032.03 135.343 1032.03 159.714V211.429H1001.47V98.3269H1031.12V115.112C1038.01 100.16 1053.65 97.4102 1063.3 97.4102C1065.82 97.4102 1068.13 97.6314 1070.41 97.8843V128.673ZM260.705 211.081V149.757H289.913C322.093 149.757 343.462 128.61 343.462 98.9591C343.462 69.5297 322.093 48.161 289.913 48.161H229V211.081H260.705ZM311.503 99.1803C311.503 113.184 301.862 122.382 285.994 122.382H260.927V75.7254H285.994C301.862 75.7254 311.503 84.7027 311.503 99.1803Z" fill="black"/>
<path fill-rule="evenodd" clip-rule="evenodd" d="M150.089 124.871C135.494 114.596 135.494 92.9652 150.089 82.7247C158.1 77.1169 163.36 67.8169 163.36 57.2978C163.36 40.1607 149.497 26.2978 132.36 26.2978C125.916 26.2978 119.89 28.2831 114.944 31.6618C95.6472 44.5843 69.4191 37.7921 58.7607 17.1719C53.6753 7.00112 43.1562 0 31 0C13.8629 0 0 13.8629 0 31C0 48.1371 13.8629 62 31 62C37.4438 62 43.4697 60.0146 48.4157 56.636C67.7124 43.7135 93.9404 50.5056 104.599 71.1258C106.933 75.7933 110.381 79.764 114.596 82.7247C129.12 92.9303 129.19 114.456 114.77 124.766C95.473 137.549 69.3494 130.757 58.7258 110.207C53.6753 100.001 43.1562 93 31 93C13.8629 93 0 106.863 0 124C0 134.519 5.22472 143.819 13.2708 149.427C27.8652 159.702 27.8652 181.333 13.2708 191.573C5.22472 197.181 0 206.481 0 217C0 234.137 13.8629 248 31 248C48.1371 248 62 234.137 62 217C62 206.481 56.7753 197.181 48.7292 191.573C34.2045 181.367 34.1348 159.876 48.5551 149.566C67.8517 136.783 93.9753 143.575 104.599 164.126C109.684 174.297 120.203 181.298 132.36 181.298C149.497 181.298 163.36 167.435 163.36 150.298C163.36 139.779 158.135 130.479 150.089 124.871Z" fill="#020203"/>
</svg>
