<?xml version="1.0" encoding="UTF-8"?>
<svg version="1.1" xmlns="http://www.w3.org/2000/svg" width="1368" height="539">
<path d="M0 0 C12.49258421 -0.35056694 24.98396279 -0.61556486 37.48049927 -0.77718258 C43.28615397 -0.85483243 49.08839806 -0.95977503 54.89208984 -1.1315918 C103.22585461 -2.52503348 103.22585461 -2.52503348 120.68530273 13.04476929 C124.79589459 16.51699676 129.4200856 19.19744395 134 22 C135.8146072 23.15294016 137.62736508 24.30880091 139.4375 25.46875 C145.27014841 29.18043535 151.13324934 32.84253532 157 36.5 C164.83283065 41.38500476 172.64895295 46.29465407 180.4375 51.25 C181.25154297 51.76755859 182.06558594 52.28511719 182.90429688 52.81835938 C191.29831771 58.16846766 199.64230969 63.59208274 208 69 C208.33 46.23 208.66 23.46 209 0 C212.44521836 1.37808734 214.95948877 2.46472324 217.9765625 4.3984375 C218.71970703 4.87152344 219.46285156 5.34460938 220.22851562 5.83203125 C221.01935547 6.34121094 221.81019531 6.85039063 222.625 7.375 C224.3358673 8.4662559 226.0468068 9.55739861 227.7578125 10.6484375 C229.06540527 11.4852002 229.06540527 11.4852002 230.39941406 12.33886719 C234.42273422 14.90877616 238.46168828 17.45374173 242.5 20 C244.07037408 20.99209003 245.64068628 21.98427802 247.2109375 22.9765625 C250.50586918 25.05778634 253.80304796 27.13539714 257.1015625 29.2109375 C258.36323242 30.00564453 258.36323242 30.00564453 259.65039062 30.81640625 C261.23963127 31.81736445 262.82942794 32.8174407 264.41992188 33.81640625 C265.84104124 34.71197485 267.25531934 35.61854556 268.66063029 36.53872192 C270.96213504 38.02652539 270.96213504 38.02652539 273.35718387 39.18446171 C279.49172059 42.52332266 279.49172059 42.52332266 280.82370484 46.39306617 C281.13839676 49.425129 281.15655436 52.34161287 281.08229065 55.38937378 C281.09382538 57.11828092 281.09382538 57.11828092 281.10559314 58.88211548 C281.11784145 62.07363292 281.08978644 65.26184705 281.04459059 68.45297384 C281.00567516 71.89666074 281.01888003 75.34019739 281.02571106 78.78404236 C281.03042736 84.74787652 281.0022233 90.71082364 280.95157051 96.67443466 C280.87838443 105.29662339 280.85498348 113.91838379 280.84367859 122.54084946 C280.8239873 136.53040575 280.76411097 150.51948938 280.67895508 164.50878906 C280.59632689 178.09698117 280.53262966 191.68504484 280.49438477 205.2734375 C280.49202025 206.11120692 280.48965574 206.94897633 280.48721958 207.8121327 C280.47547413 212.01503211 280.46410078 216.21793243 280.45291245 220.42083335 C280.35963188 255.2808925 280.20113159 290.14040263 280 325 C276.50595018 323.64046084 273.45392986 322.15811845 270.296875 320.12890625 C269.40830811 319.56059082 268.51974121 318.99227539 267.60424805 318.40673828 C266.66234619 317.79813965 265.72044434 317.18954102 264.75 316.5625 C263.76491455 315.93069824 262.7798291 315.29889648 261.76489258 314.64794922 C258.84008719 312.77017341 255.91925494 310.88639058 253 309 C252.2457373 308.51289551 251.49147461 308.02579102 250.71435547 307.52392578 C248.0485286 305.80120698 245.38364053 304.07707636 242.72167969 302.34838867 C238.30125093 299.4797343 233.86728989 296.63276527 229.42578125 293.796875 C228.85462082 293.43206024 228.28346039 293.06724548 227.69499207 292.69137573 C224.83509761 290.86497349 221.9742335 289.04011457 219.11206055 287.21728516 C218.07476807 286.55519043 217.03747559 285.8930957 215.96875 285.2109375 C215.03482422 284.61587402 214.10089844 284.02081055 213.13867188 283.40771484 C211 282 211 282 210 281 C208.19843858 280.91322022 206.39342696 280.89759225 204.58981323 280.90907288 C203.41530609 280.91373566 202.24079895 280.91839844 201.03070068 280.92320251 C199.73005676 280.9331575 198.42941284 280.94311249 197.08935547 280.95336914 C195.7145514 280.96015556 194.33974439 280.96636764 192.9649353 280.9720459 C190.76315816 280.98130199 188.56139095 280.99105279 186.35962462 281.00262368 C180.88247066 281.03138659 175.40547948 281.04297226 169.92825317 281.04405212 C169.13322573 281.04423389 168.33819828 281.04441566 167.51907909 281.04460293 C164.23578942 281.04505313 160.95249989 281.04497034 157.6692102 281.0447675 C148.36104821 281.0450315 139.05355878 281.06147738 129.74560547 281.12670898 C122.35460879 281.17839092 114.96448477 281.19422606 107.57333672 281.16924757 C103.66592284 281.15737122 99.76036955 281.1628623 95.85320663 281.21193123 C65.41148746 281.5739351 65.41148746 281.5739351 53 270 C51.2257628 268.80285732 49.43031464 267.63552286 47.6015625 266.5234375 C46.78494141 266.00571777 45.96832031 265.48799805 45.12695312 264.95458984 C44.30130859 264.4333252 43.47566406 263.91206055 42.625 263.375 C40.75241073 262.18780506 38.88002357 261.00029128 37.0078125 259.8125 C36.04004883 259.19890625 35.07228516 258.5853125 34.07519531 257.953125 C28.54242116 254.43913697 23.02106066 250.90734796 17.5 247.375 C16.44377441 246.70001465 15.38754883 246.0250293 14.29931641 245.32958984 C13.30335449 244.69230957 12.30739258 244.0550293 11.28125 243.3984375 C10.40533203 242.83817871 9.52941406 242.27791992 8.62695312 241.70068359 C7.32661133 240.85884521 7.32661133 240.85884521 6 240 C4.45605088 239.24945028 4.45605088 239.24945028 2.88091087 238.48373795 C-0.21007774 235.81888435 -0.42471136 235.59528157 -0.73828697 231.82210922 C-0.76353151 230.068082 -0.75533725 228.3133923 -0.7215271 226.55950928 C-0.72665365 225.59237322 -0.7317802 224.62523716 -0.7370621 223.62879395 C-0.74696696 220.37913534 -0.71390968 217.13132406 -0.68115234 213.88183594 C-0.6794604 211.55615279 -0.68040891 209.23046644 -0.68380737 206.90478516 C-0.68553251 200.58263025 -0.65019751 194.26115504 -0.60836363 187.93915844 C-0.57470875 182.00421698 -0.56862804 176.06930233 -0.56245239 170.13427833 C-0.54932041 158.37877843 -0.50939047 146.62352833 -0.45263672 134.86816406 C-0.39756298 123.44890595 -0.35509232 112.02971567 -0.32958984 100.61035156 C-0.3280135 99.9064715 -0.32643716 99.20259144 -0.32481305 98.47738168 C-0.31698283 94.94622383 -0.30940058 91.41506549 -0.30194163 87.88390684 C-0.2397407 58.58911015 -0.13361533 29.29455774 0 0 Z M72 71 C72 109.61 72 148.22 72 188 C69.525 188.99 69.525 188.99 67 190 C65.5469374 190.83239282 64.11556539 191.70367068 62.70703125 192.609375 C61.91594971 193.11428467 61.12486816 193.61919434 60.30981445 194.1394043 C59.0736438 194.93664917 59.0736438 194.93664917 57.8125 195.75 C56.11519023 196.83558488 54.41727872 197.92022955 52.71875 199.00390625 C51.50058594 199.78145264 51.50058594 199.78145264 50.2578125 200.57470703 C46.7262674 202.80407125 43.13608793 204.92311106 39.51953125 207.01171875 C39.01808594 207.33785156 38.51664063 207.66398438 38 208 C38 208.33 38 208.66 38 209 C94.43 209 150.86 209 209 209 C209 163.46 209 117.92 209 71 C163.79 71 118.58 71 72 71 Z " fill="#598FFF" transform="translate(34,109)"/>
<path d="M0 0 C16.5 0 33 0 50 0 C50.33 30.36 50.66 60.72 51 92 C59.30788039 80.75407804 59.30788039 80.75407804 67.3125 69.3125 C68.22839333 67.96952435 69.14510102 66.62710383 70.0625 65.28515625 C70.53558594 64.59309082 71.00867188 63.90102539 71.49609375 63.18798828 C74.24325429 59.19122647 77.02850193 55.22114994 79.8125 51.25 C80.40135986 50.40993408 80.99021973 49.56986816 81.59692383 48.7043457 C82.79832583 46.99092421 83.9999055 45.27762729 85.20166016 43.56445312 C87.55639173 40.20657904 89.90824011 36.84669204 92.25976562 33.48657227 C93.41319393 31.83847079 94.56683723 30.19051976 95.72070312 28.54272461 C98.80265315 24.14136914 101.8816586 19.73798557 104.95703125 15.33203125 C105.92479492 13.94661133 105.92479492 13.94661133 106.91210938 12.53320312 C108.15771912 10.7499201 109.40253955 8.96608543 110.64648438 7.18164062 C111.48083008 5.98764648 111.48083008 5.98764648 112.33203125 4.76953125 C112.82421143 4.06417236 113.3163916 3.35881348 113.82348633 2.63208008 C115 1 115 1 116 0 C117.9943173 -0.09405142 119.99199543 -0.11743249 121.98852539 -0.11352539 C123.26977798 -0.11344986 124.55103058 -0.11337433 125.87110901 -0.11329651 C127.27995848 -0.10818909 128.68880756 -0.10297309 130.09765625 -0.09765625 C131.53112234 -0.09579202 132.96458907 -0.09436814 134.39805603 -0.09336853 C138.17759957 -0.08954372 141.9571049 -0.07971377 145.7366333 -0.06866455 C149.59069298 -0.05844963 153.44475882 -0.05387074 157.29882812 -0.04882812 C164.86590287 -0.03809146 172.43294609 -0.02101549 180 0 C173.70781089 9.50919407 173.70781089 9.50919407 170.80859375 13.40234375 C170.26332031 14.13775391 169.71804688 14.87316406 169.15625 15.63085938 C168.5890625 16.39205078 168.021875 17.15324219 167.4375 17.9375 C162.74988572 24.26229591 158.09689384 30.60895536 153.5 37 C148.46018664 44.00234077 143.35786353 50.9561361 138.23046875 57.89453125 C133.74768316 63.96766206 129.32145285 70.07972487 124.91210938 76.20629883 C120.24087293 82.68771069 115.50760152 89.12235438 110.75585938 95.54492188 C107.46136377 100.00081428 104.20794581 104.48134499 101 109 C102.59792733 112.86241862 105.22148789 115.58219414 108.0625 118.5625 C111.65112328 122.39465791 115.09644611 126.26920432 118.375 130.375 C122.42666217 135.41416406 126.77354616 140.10465771 131.20263672 144.80810547 C135.22343643 149.101263 138.94997081 153.56246351 142.625 158.15625 C145.46464456 161.55635072 148.46388099 164.77586445 151.5 168 C156.10577446 172.89099444 160.4261367 177.90767088 164.625 183.15625 C167.46465024 186.55635752 170.46395735 189.77578369 173.5 193 C178.22249009 198.01721932 182.68156373 203.13421827 186.98828125 208.515625 C189.49373663 211.60974077 192.12224987 214.58027763 194.78515625 217.5390625 C196 219 196 219 196 220 C187.75038884 220.3498444 179.50394327 220.61515819 171.2487154 220.77718258 C167.4136895 220.85501422 163.58378523 220.9602229 159.75170898 221.1315918 C132.93415523 222.29998297 132.93415523 222.29998297 126.17749023 216.78979492 C123.27097978 213.76850125 121.05832182 210.50949166 119.05015564 206.83988953 C117.49157698 204.10923472 115.48519194 201.81197387 113.4375 199.4375 C112.73496094 198.56996094 112.03242187 197.70242188 111.30859375 196.80859375 C108.58655815 193.49701407 105.79856861 190.2469 103 187 C98.67821817 181.98413025 94.44520648 176.9082451 90.26953125 171.76953125 C85.91494206 166.45558334 81.44921565 161.23473234 77 156 C70.99034417 148.92932907 65.01068701 141.84297546 59.16796875 134.6328125 C56.49189504 131.38295001 53.73974486 128.196369 51 125 C50.67 156.35 50.34 187.7 50 220 C33.5 220 17 220 0 220 C0 147.4 0 74.8 0 0 Z " fill="#12286A" transform="translate(446,162)"/>
<path d="M0 0 C17.29661549 14.73691521 29.08918084 34.90116376 31.3125 57.6875 C31.78447869 65.39823331 31.65841019 73.06388016 30.3125 80.6875 C29.3125 81.6875 29.3125 81.6875 27.15919399 81.81054783 C26.20145108 81.80962604 25.24370817 81.80870424 24.25694275 81.80775452 C22.61412071 81.80981651 22.61412071 81.80981651 20.93811035 81.81192017 C19.72610962 81.80832489 18.51410889 81.80472961 17.26538086 81.80102539 C15.36321556 81.80124443 15.36321556 81.80124443 13.42262268 81.8014679 C9.93517578 81.80175585 6.44776299 81.79585945 2.96032405 81.78889394 C-0.68053723 81.78266007 -4.32139922 81.78205658 -7.96226501 81.78086853 C-14.86126972 81.77775531 -21.76025865 81.76954205 -28.6592564 81.75951904 C-36.51160685 81.74835761 -44.36395803 81.74284738 -52.21631444 81.73782361 C-68.37338553 81.72735943 -84.53044076 81.70976017 -100.6875 81.6875 C-99.59786635 83.60855224 -98.50150199 85.52578772 -97.40234375 87.44140625 C-96.79253662 88.5094751 -96.18272949 89.57754395 -95.55444336 90.67797852 C-89.52965818 100.38996058 -80.50126199 105.69066286 -69.6875 108.6875 C-68.883125 108.914375 -68.07875 109.14125 -67.25 109.375 C-52.72669275 111.14613503 -41.4198887 107.00454714 -29.75 98.5625 C-27.63060915 96.80391954 -27.63060915 96.80391954 -26.3724823 94.59869385 C-24.6875 92.6875 -24.6875 92.6875 -22.39057922 92.20648193 C-21.49123154 92.21536438 -20.59188385 92.22424683 -19.6652832 92.23339844 C-18.64445145 92.23370056 -17.62361969 92.23400269 -16.57185364 92.23431396 C-15.47177475 92.25495911 -14.37169586 92.27560425 -13.23828125 92.296875 C-12.1105278 92.30253479 -10.98277435 92.30819458 -9.82084656 92.31402588 C-6.21346865 92.33644369 -2.60707847 92.38665216 1 92.4375 C3.44334505 92.45755791 5.88670564 92.47580991 8.33007812 92.4921875 C14.32455662 92.53632621 20.31845776 92.60329269 26.3125 92.6875 C24.41527877 103.22861346 18.20765044 112.68725773 11.3125 120.6875 C10.79300781 121.35007812 10.27351563 122.01265625 9.73828125 122.6953125 C-4.65584644 140.47014331 -28.01093958 149.9714197 -50.23828125 152.41015625 C-75.71461861 154.45864997 -100.21727161 147.29807864 -119.92578125 131.046875 C-120.83714844 130.26828125 -121.74851562 129.4896875 -122.6875 128.6875 C-123.36167969 128.11515625 -124.03585937 127.5428125 -124.73046875 126.953125 C-138.38113161 114.33329023 -148.72474297 93.82833087 -149.82788086 75.33398438 C-150.79639582 48.9594622 -144.87279894 27.99729227 -127.23046875 7.88671875 C-93.89549877 -27.40051887 -37.56461875 -29.59320867 0 0 Z M-93.765625 37.171875 C-96.65983766 40.96023466 -98.55545235 45.42340471 -100.6875 49.6875 C-73.6275 49.6875 -46.5675 49.6875 -18.6875 49.6875 C-22.28557081 38.89328757 -29.65315664 31.1596091 -39.6875 25.9375 C-59.68263713 16.07147839 -78.49618364 22.68548191 -93.765625 37.171875 Z " fill="#12286A" transform="translate(1301.6875,231.3125)"/>
<path d="M0 0 C2.5204754 2.2020178 4.91677531 4.47542331 7.28515625 6.83984375 C8.05601562 7.59910156 8.826875 8.35835937 9.62109375 9.140625 C30.53976214 30.95172805 32.76651199 57.75403482 32.578125 86.4375 C32.57251766 88.96910855 32.56825295 91.50072039 32.56526184 94.03233337 C32.55505773 99.96755991 32.5315217 105.90263434 32.50121337 111.83778328 C32.46741284 118.60706922 32.45111962 125.37636429 32.43612707 132.14571393 C32.40496248 146.04385067 32.35236429 159.9418378 32.28515625 173.83984375 C29.03914142 172.56637417 26.05063915 171.2286595 23.0546875 169.44140625 C22.25973877 168.96872314 21.46479004 168.49604004 20.64575195 168.0090332 C17.08918035 165.85369015 13.55290098 163.66583269 10.015625 161.47900391 C7.38177503 159.89784612 4.70964346 158.43033847 2.00390625 156.9765625 C-9.70396113 150.39880129 -9.70396113 150.39880129 -11.57763672 145.65576172 C-12.59328633 140.65028281 -12.34789972 135.88040258 -11.71484375 130.83984375 C-12.05773437 131.31292969 -12.400625 131.78601563 -12.75390625 132.2734375 C-21.55872349 143.39873613 -34.94528356 150.49766116 -48.90234375 152.58984375 C-74.49763649 154.2682236 -98.56759606 147.07609727 -118.09179688 130.25024414 C-132.61982736 117.09594347 -144.5922609 96.96658706 -145.8918457 77.1394043 C-146.49017497 48.69850187 -140.76383748 26.82395679 -120.96484375 5.65234375 C-88.28918924 -25.53215986 -35.31470148 -28.09932362 0 0 Z M-91.71484375 39.83984375 C-98.40532322 48.7120013 -101.73952866 59.71735486 -100.71484375 70.83984375 C-98.56400142 83.25376048 -93.42961648 93.59219996 -83.71484375 101.83984375 C-71.9677071 109.30180423 -60.27374564 112.86150201 -46.328125 110.19140625 C-33.95019953 106.76367304 -23.59135167 99.42646839 -17.1796875 88.13671875 C-11.11583336 75.47864421 -10.08228653 64.13490635 -14.71484375 50.83984375 C-19.49693644 38.04871776 -28.62751986 30.76458062 -40.61328125 25.1171875 C-59.06960426 17.51615775 -79.28497214 25.17259525 -91.71484375 39.83984375 Z " fill="#12286A" transform="translate(778.71484375,230.16015625)"/>
<path d="M0 0 C16.83 0 33.66 0 51 0 C53.248125 5.07375 55.49625 10.1475 57.8125 15.375 C63.79749279 28.8521024 69.81801997 42.31298485 75.88534546 55.75323486 C76.70390068 57.56694897 77.5216456 59.38102903 78.33853149 61.19549561 C82.70747317 70.89624967 87.12112118 80.54226126 92 90 C105.35098181 61.20075223 105.35098181 61.20075223 118.41088867 32.26879883 C123.21334176 21.48356495 128.11372328 10.74980877 133 0 C149.5 0 166 0 183 0 C182.08422578 4.5788711 180.67057217 8.25319368 178.7109375 12.421875 C178.3759877 13.14591522 178.0410379 13.86995544 177.69593811 14.61593628 C176.9723243 16.17858227 176.24626975 17.74009987 175.51803589 19.30059814 C173.96169535 22.63566701 172.41703112 25.97610156 170.87150574 29.31619263 C170.07607851 31.03480423 169.28002194 32.75312469 168.48335266 34.47116089 C164.75968606 42.50363147 161.09193012 50.56085077 157.4375 58.625 C156.20623722 61.34007446 154.97442308 64.05489816 153.7421875 66.76953125 C153.4365538 67.4428801 153.1309201 68.11622894 152.81602478 68.8099823 C150.57819822 73.73634273 148.32705061 78.65649633 146.0703125 83.57421875 C144.73414672 86.48687452 143.39817083 89.39961723 142.0625 92.3125 C141.73096924 93.03549286 141.39943848 93.75848572 141.05786133 94.50338745 C135.58529427 106.44696265 130.24163296 118.44446176 124.93289185 130.46157837 C119.96718951 141.69133326 114.84147252 152.83399298 109.58557129 163.93060303 C103.53607281 176.71125071 97.78308357 189.61646625 92.1015625 202.56445312 C91.77477005 203.30668625 91.4479776 204.04891937 91.11128235 204.81364441 C90.49935512 206.20405877 89.88982292 207.5955306 89.28312683 208.98823547 C88.02209273 211.85191195 86.74213296 214.38680056 85 217 C82.82333374 217.36076355 82.82333374 217.36076355 80.09130859 217.34057617 C78.55994766 217.34023628 78.55994766 217.34023628 76.99765015 217.33988953 C75.89240997 217.32440567 74.7871698 217.30892181 73.6484375 217.29296875 C72.5192691 217.28872391 71.39010071 217.28447906 70.22671509 217.28010559 C66.60923727 217.26327132 62.99231031 217.22560975 59.375 217.1875 C56.92709136 217.17245934 54.47917402 217.15876986 52.03125 217.14648438 C46.0206444 217.11335227 40.01036154 217.06310579 34 217 C34.81254153 212.46026284 36.40468505 208.59052817 38.359375 204.4375 C38.87115799 203.33319893 38.87115799 203.33319893 39.39328003 202.20658875 C40.12694647 200.6245254 40.86289177 199.04351724 41.60089111 197.46347046 C42.75819936 194.98242214 43.90655373 192.49741797 45.05224609 190.01098633 C48.37261696 182.80822104 51.70580736 175.61209101 55.08972168 168.43893433 C56.32660123 165.80843341 57.54843098 163.17113502 58.76672363 160.53198242 C59.60630294 158.72768099 60.46651107 156.93302424 61.32714844 155.13867188 C65.23117641 146.77695518 65.23117641 146.77695518 64 138 C62.27007329 133.81712981 60.28857705 129.79000397 58.25 125.75 C57.35959274 123.94444168 56.46923069 122.13885937 55.58155823 120.33195496 C54.9692202 119.08575048 54.35563016 117.84016046 53.74082947 116.59516907 C50.57534139 110.17502789 47.56060126 103.68730605 44.5625 97.1875 C43.47927133 94.84500368 42.39593692 92.50255626 41.3125 90.16015625 C40.76980469 88.98598145 40.22710938 87.81180664 39.66796875 86.60205078 C37.10359208 81.06416827 34.52270385 75.53403033 31.9402771 70.00454712 C31.06317815 68.1264521 30.18645274 66.24818312 29.30981445 64.36987305 C26.63175056 58.63241382 23.95175684 52.89586485 21.26802063 47.16105652 C15.51015667 34.85652868 9.76110018 22.54844593 4.125 10.1875 C3.70186523 9.26195312 3.27873047 8.33640625 2.84277344 7.3828125 C2.46411133 6.54878906 2.08544922 5.71476563 1.6953125 4.85546875 C1.36547363 4.12996826 1.03563477 3.40446777 0.69580078 2.65698242 C0 1 0 1 0 0 Z " fill="#12286A" transform="translate(813,216)"/>
<path d="M0 0 C11.65316917 10.66693213 14.73993115 24.25026749 16.00390625 39.41796875 C0.82390625 39.41796875 -14.35609375 39.41796875 -29.99609375 39.41796875 C-31.31609375 35.78796875 -32.63609375 32.15796875 -33.99609375 28.41796875 C-40.44048627 22.89420373 -46.84593704 22.84023612 -54.99609375 23.41796875 C-58.82542664 24.24461839 -61.93525534 25.49401272 -64.93359375 28.10546875 C-66.4548666 31.41647437 -67.4790584 34.76512343 -66.99609375 38.41796875 C-61.68164586 46.63005608 -52.12729326 49.84325631 -42.97265625 51.8359375 C-38.62050218 52.70741869 -34.25653573 53.50930386 -29.890625 54.30859375 C-14.07297017 57.20945246 -0.31456113 62.50184525 10.00390625 75.41796875 C17.50530054 87.79831867 18.65262627 99.91294862 16.42578125 114.1015625 C12.73685588 127.80088991 3.51004501 139.34723235 -8.74023438 146.42578125 C-28.24013724 156.97524947 -50.67464741 159.00986777 -72.09765625 153.640625 C-88.21039444 148.68776484 -102.18515425 139.82765986 -110.48364258 124.89038086 C-114.60444516 116.81413343 -115.99609375 108.42391408 -115.99609375 99.41796875 C-100.81609375 99.41796875 -85.63609375 99.41796875 -69.99609375 99.41796875 C-69.00609375 102.71796875 -68.01609375 106.01796875 -66.99609375 109.41796875 C-62.49184368 114.58460854 -55.65338115 116.12271459 -49.05859375 116.85546875 C-42.97277212 116.59935201 -37.08574303 114.15084864 -32.43359375 110.29296875 C-29.96478652 107.07278541 -29.57951116 104.52519854 -29.66796875 100.44140625 C-30.25673178 96.81070093 -32.10524014 95.55720042 -34.99609375 93.41796875 C-42.00545493 89.26348166 -48.70878378 87.36282044 -56.68359375 85.98046875 C-76.09320133 82.23449463 -95.81884564 74.67980747 -107.73828125 57.9765625 C-114.52277608 47.34535648 -115.57317658 36.68272239 -112.87109375 24.35546875 C-108.94719383 10.53182133 -100.4653175 0.18433796 -88.30859375 -7.45703125 C-60.39259012 -22.61768074 -24.84309162 -19.68973015 0 0 Z " fill="#12286A" transform="translate(1120.99609375,227.58203125)"/>
</svg>
