<?xml version="1.0" standalone="no"?>
<!DOCTYPE svg PUBLIC "-//W3C//DTD SVG 20010904//EN"
 "http://www.w3.org/TR/2001/REC-SVG-20010904/DTD/svg10.dtd">
<svg version="1.0" xmlns="http://www.w3.org/2000/svg"
 width="476.000000pt" height="123.000000pt" viewBox="0 0 476.000000 123.000000"
 preserveAspectRatio="xMidYMid meet">

<g transform="translate(0.000000,123.000000) scale(0.100000,-0.100000)"
fill="#000000" stroke="none">
<path d="M103 748 l2 -422 125 -78 124 -78 256 0 256 0 85 -53 c46 -29 103
-65 127 -80 l42 -27 0 502 0 503 -125 77 -125 77 0 -375 0 -374 -322 0 c-352
0 -336 -4 -235 54 l47 28 0 209 0 209 247 2 247 3 -199 123 -199 122 -178 0
-177 0 2 -422z"/>
<path d="M1502 588 l3 -393 87 -3 88 -3 2 178 3 178 153 -178 153 -177 110 0
c63 0 109 4 107 9 -1 5 -78 93 -170 195 -93 102 -168 189 -168 194 0 5 60 90
133 188 73 98 136 185 140 192 6 9 -17 12 -105 12 l-113 -1 -120 -170 -120
-170 -3 171 -2 170 -90 0 -90 0 2 -392z"/>
<path d="M2453 800 c-68 -14 -128 -45 -172 -89 -59 -59 -83 -113 -89 -197 -4
-61 -1 -80 20 -126 35 -75 79 -122 149 -157 108 -54 215 -51 283 9 18 17 36
30 40 30 3 0 6 -15 6 -33 0 -30 6 -36 67 -72 37 -22 71 -42 76 -44 5 -2 7 94
5 225 -3 226 -3 230 -30 280 -67 127 -218 201 -355 174z m163 -175 c46 -35 68
-86 61 -143 -21 -187 -299 -188 -323 -1 -17 137 150 229 262 144z"/>
<path d="M3743 800 c-96 -20 -157 -72 -174 -151 -21 -94 56 -173 199 -205 68
-15 112 -40 112 -63 0 -5 -8 -19 -18 -31 -35 -43 -142 -23 -142 27 0 10 -20
13 -80 13 l-80 0 0 -27 c0 -34 35 -94 72 -122 60 -48 175 -65 259 -39 50 14
118 72 135 115 47 111 -23 209 -165 233 -112 19 -159 62 -113 103 35 32 122
11 122 -29 0 -11 17 -14 80 -14 79 0 80 0 80 25 0 54 -55 122 -120 148 -48 20
-117 27 -167 17z"/>
<path d="M4363 799 c-102 -20 -197 -89 -238 -174 -30 -62 -33 -179 -5 -243 30
-70 109 -143 185 -171 155 -58 344 10 415 149 l20 40 -86 0 c-76 0 -91 -3
-119 -24 -78 -59 -169 -53 -232 18 l-37 41 241 3 241 2 5 33 c19 104 -60 239
-171 296 -32 16 -152 44 -172 40 -3 -1 -24 -5 -47 -10z m133 -158 c35 -16 84
-66 84 -85 0 -3 -70 -6 -156 -6 l-156 0 19 33 c21 37 93 77 138 77 16 0 48 -9
71 -19z"/>
<path d="M2864 761 c51 -97 226 -475 226 -486 0 -8 -25 -68 -55 -134 -30 -66
-55 -123 -55 -126 0 -3 41 -4 90 -3 l91 3 165 355 c91 195 172 370 179 388
l14 33 -90 -3 -90 -3 -73 -158 c-40 -87 -76 -159 -80 -160 -4 -1 -40 70 -81
158 l-73 160 -92 3 -91 3 15 -30z"/>
</g>
</svg>
