<?xml version="1.0" encoding="UTF-8"?>
<svg version="1.1" xmlns="http://www.w3.org/2000/svg" width="2160" height="540">
<path d="M0 0 C20.96782248 -0.3522339 41.93514928 -0.61579858 62.9053421 -0.77718258 C72.64493903 -0.85414841 82.38268568 -0.95884304 92.12109375 -1.1315918 C100.62090031 -1.28229571 109.11936581 -1.37814895 117.62047148 -1.41132742 C122.1121221 -1.43068953 126.5999406 -1.47532778 131.09034729 -1.58595085 C152.93507093 -2.10317 167.8471036 -1.07189454 185.5741272 13.11816216 C189.45362789 16.12763207 193.62537013 18.63424045 197.8125 21.1875 C199.35191592 22.15753397 200.889895 23.12985577 202.42578125 24.10546875 C207.11523202 27.073412 211.80744708 30.03696469 216.5 33 C218.08334493 33.99998164 219.66667828 34.99998162 221.25 36 C222.03375 36.495 222.8175 36.99 223.625 37.5 C268.75 66 268.75 66 271.1237793 67.49926758 C272.71113526 68.50178243 274.29853779 69.50422354 275.88598633 70.5065918 C279.78315395 72.96751963 283.67957101 75.42961712 287.57421875 77.89453125 C297.19387858 83.98033412 306.83333995 90.03324316 316.4987793 96.04614258 C327.04813469 102.62264178 337.51027203 109.32471856 348 116 C348 77.72 348 39.44 348 0 C351.44521836 1.37808734 353.95948877 2.46472324 356.9765625 4.3984375 C357.7193042 4.87128174 358.4620459 5.34412598 359.22729492 5.83129883 C360.0185376 6.34072021 360.80978027 6.8501416 361.625 7.375 C363.34239346 8.47013749 365.05984287 9.56518723 366.77734375 10.66015625 C367.64987793 11.21848145 368.52241211 11.77680664 369.42138672 12.35205078 C373.33457279 14.85290346 377.26049041 17.33343105 381.1875 19.8125 C382.34536011 20.54436523 382.34536011 20.54436523 383.52661133 21.29101562 C389.94104589 25.34182587 396.37578713 29.35971476 402.8125 33.375 C410.5660106 38.21239721 418.29653963 43.08329776 426 48 C433.9957825 53.10289846 442.01864614 58.16069961 450.0625 63.1875 C451.08021484 63.82365234 452.09792969 64.45980469 453.14648438 65.11523438 C458.23277994 68.39169349 458.23277994 68.39169349 463.61289948 71.11455661 C466 73 466 73 466.62099248 76.36701316 C466.64478362 77.7986309 466.6406038 79.23086483 466.61523914 80.66245556 C466.62100836 81.4543876 466.62677759 82.24631965 466.63272163 83.06224963 C466.6460466 85.73864752 466.62345437 88.41356696 466.60127258 91.08988953 C466.60345127 93.01876406 466.60782603 94.94763716 466.61421841 96.87650234 C466.62544128 102.19444714 466.60534035 107.51189201 466.58032811 112.82977307 C466.55880336 118.55779047 466.56603787 124.28577802 466.56983948 130.01382446 C466.57246553 139.94384671 466.55673329 149.87370511 466.52865028 159.80368614 C466.48807305 174.16087257 466.47499898 188.5179795 466.46871033 202.87521706 C466.45775806 226.16693847 466.42450144 249.4585705 466.37719727 272.75024414 C466.33128949 295.38044785 466.2958644 318.01062821 466.2746582 340.64086914 C466.27400057 341.33819867 466.27334294 342.03552821 466.27266538 342.75398894 C466.26607289 349.75673767 466.2596938 356.75948658 466.25347109 363.76223565 C466.20124878 422.50821469 466.11300197 481.25410687 466 540 C462.68612457 539.24407639 460.36950449 538.14650977 457.5 536.296875 C456.6236792 535.73564941 455.7473584 535.17442383 454.84448242 534.59619141 C453.90580322 533.98694824 452.96712402 533.37770508 452 532.75 C451.01813721 532.11884277 450.03627441 531.48768555 449.0246582 530.83740234 C446.01213466 528.89816752 443.00511255 526.95069587 440 525 C439.14712402 524.44666992 438.29424805 523.89333984 437.41552734 523.32324219 C434.19536996 521.23243216 430.97659704 519.13952842 427.76049805 517.04248047 C419.89241678 511.91552224 411.98058278 506.85782518 404.06713867 501.80126953 C398.20018404 498.05129453 392.34117266 494.29000212 386.5 490.5 C379.83001291 486.17402019 373.14252367 481.87553734 366.44799805 477.58764648 C364.78601151 476.52306704 363.12444635 475.45782984 361.46289062 474.39257812 C360.43873047 473.73708984 359.41457031 473.08160156 358.359375 472.40625 C357.44639648 471.82166016 356.53341797 471.23707031 355.59277344 470.63476562 C354.7371582 470.09529297 353.88154297 469.55582031 353 469 C352.31372843 468.47784125 351.62745686 467.95568251 350.92038918 467.41770077 C346.79655316 465.41578762 343.20638694 465.61492884 338.68099976 465.68202209 C337.26749865 465.68475204 337.26749865 465.68475204 335.82544196 465.68753713 C332.66513502 465.69698977 329.50538501 465.72771524 326.34521484 465.75805664 C324.07977422 465.76868549 321.81432618 465.77782442 319.5488739 465.7855835 C314.66632381 465.804369 309.78391468 465.8315082 304.90143967 465.86439705 C297.16668459 465.91419181 289.43207042 465.93163191 281.69717407 465.94200134 C279.04649157 465.94595213 276.39580912 465.94993975 273.74512672 465.95396328 C273.08262792 465.95495158 272.42012912 465.95593988 271.7375546 465.95695813 C264.19774584 465.96848601 256.65795389 465.98521521 249.11816406 466.00561523 C248.08466131 466.00839566 248.08466131 466.00839566 247.03027971 466.01123225 C235.89816881 466.04228354 224.76645776 466.10697623 213.63456552 466.18162162 C202.179246 466.25735158 190.72461212 466.28575151 179.26900828 466.27608389 C172.84753191 466.27247953 166.42780928 466.29070293 160.00669479 466.36226082 C153.95344061 466.42954295 147.902638 466.4399575 141.84911537 466.40881348 C139.64135212 466.40729978 137.43345676 466.4259296 135.22608376 466.46746635 C119.91958333 466.73981021 110.33230459 463.80756588 98.07999063 454.53998363 C94.72963093 452.05944405 91.20901688 449.85225848 87.6875 447.625 C86.29546104 446.72152652 84.90350522 445.81792489 83.51171875 444.9140625 C78.36079664 441.57846873 73.18027861 438.28974394 68 435 C60.87480394 430.47420812 53.7670893 425.92394206 46.68798828 421.32641602 C42.44196458 418.57184686 38.18422103 415.83643502 33.91796875 413.11328125 C32.83749268 412.42347168 31.7570166 411.73366211 30.64379883 411.02294922 C28.54420289 409.68343555 26.44384401 408.34511657 24.3425293 407.00830078 C22.37349731 405.75189369 20.41430746 404.47989488 18.46651036 403.19081295 C16.09056206 401.64595282 13.67684203 400.28513213 11.16342157 398.97723305 C0.94501257 393.39135443 0.94501257 393.39135443 -1.37652385 387.51670623 C-1.89481963 383.25984403 -1.93269966 379.22907138 -1.80381775 374.95358276 C-1.81036686 373.33211681 -1.82351548 371.71066649 -1.84265524 370.08930027 C-1.87608405 365.65182452 -1.81639146 361.21981398 -1.74098432 356.7830348 C-1.67604418 351.99244393 -1.69813889 347.20214699 -1.70951843 342.41123962 C-1.71737403 334.11711773 -1.67042155 325.82476934 -1.58595085 317.5310936 C-1.46390423 305.54023895 -1.42496568 293.55023954 -1.40613098 281.55883111 C-1.37332281 262.10286249 -1.27355872 242.64783862 -1.1315918 223.19238281 C-0.99385004 204.29627196 -0.88770206 185.40041795 -0.82397461 166.50390625 C-0.82003376 165.33861821 -0.8160929 164.17333018 -0.81203263 162.97273038 C-0.79245669 157.12666648 -0.77350116 151.28060077 -0.75485408 145.43453383 C-0.59941981 96.95570303 -0.33528223 48.47789765 0 0 Z M119 118 C119.38358669 181.02198719 119.38358669 181.02198719 119.96337891 244.04223633 C119.98120117 256.24353027 119.98120117 256.24353027 119.96664429 261.95927429 C119.96268778 265.94456073 120.00915287 269.92580189 120.08651733 273.9103241 C120.18370325 279.00164424 120.19369501 284.0863 120.14192271 289.17820871 C120.13757279 291.04125592 120.1632611 292.90468652 120.22318769 294.76677477 C120.56859748 306.11707894 120.56859748 306.11707894 118 311 C113.53778777 315.558772 107.85888171 318.30051313 102.13874888 320.96845758 C99.27217969 322.35103584 96.64405909 324.03143719 93.9921875 325.78515625 C93.13834473 326.33083252 92.28450195 326.87650879 91.40478516 327.4387207 C90.56995605 327.97456787 89.73512695 328.51041504 88.875 329.0625 C83.61551768 332.42817792 78.35618425 335.79140975 73.046875 339.078125 C71.91983154 339.77603149 71.91983154 339.77603149 70.77001953 340.48803711 C69.37187088 341.35133741 67.97188774 342.21167588 66.56982422 343.06860352 C65.03008093 344.01957344 63.51209578 345.00565622 62 346 C62 346.33 62 346.66 62 347 C156.38 347 250.76 347 348 347 C348 271.43 348 195.86 348 118 C272.43 118 196.86 118 119 118 Z " fill="#598FFF" transform="translate(0,0)"/>
<path d="M0 0 C27.06 0 54.12 0 82 0 C82.33 52.14 82.66 104.28 83 158 C88.28 150.41 93.56 142.82 99 135 C103.09204043 129.14910008 107.18472357 123.29872446 111.28222656 117.45166016 C114.1896209 113.30213572 117.09468001 109.15097694 120 105 C121.16665575 103.33332569 122.33332241 101.66665902 123.5 100 C124.0775 99.175 124.655 98.35 125.25 97.5 C136.33333333 81.66666667 147.41666667 65.83333333 158.5 50 C159.3667334 48.7617749 159.3667334 48.7617749 160.25097656 47.49853516 C161.41430058 45.83669009 162.57771164 44.17490595 163.74121094 42.51318359 C166.70974716 38.27324908 169.67662944 34.03217272 172.640625 29.7890625 C178.00530749 22.11173082 183.37483527 14.43839592 188.8125 6.8125 C189.22725586 6.23000488 189.64201172 5.64750977 190.06933594 5.04736328 C192.87614196 1.12385804 192.87614196 1.12385804 194 0 C195.3534059 -0.09531163 196.71173984 -0.1218872 198.0684967 -0.12025452 C198.94494339 -0.12162918 199.82139008 -0.12300385 200.72439575 -0.12442017 C202.17771805 -0.11902725 202.17771805 -0.11902725 203.66040039 -0.11352539 C204.67491776 -0.11367142 205.68943512 -0.11381744 206.73469543 -0.1139679 C210.10570373 -0.11326829 213.47665754 -0.10547368 216.84765625 -0.09765625 C219.17793243 -0.09579224 221.508209 -0.09436826 223.83848572 -0.09336853 C229.98537265 -0.08954202 236.13223613 -0.0797106 242.27911377 -0.06866455 C248.54609866 -0.05845329 254.81308732 -0.05387152 261.08007812 -0.04882812 C273.38672908 -0.03808845 285.69336259 -0.02101044 298 0 C296.69513693 3.3721519 295.37694241 6.11911276 293.19921875 9.01171875 C292.64105469 9.76001953 292.08289063 10.50832031 291.5078125 11.27929688 C290.90710938 12.07400391 290.30640625 12.86871094 289.6875 13.6875 C288.40936392 15.39914821 287.13203843 17.11140197 285.85546875 18.82421875 C285.20884277 19.68966309 284.5622168 20.55510742 283.89599609 21.44677734 C281.05742987 25.26930188 278.27722956 29.13280324 275.5 33 C270.46075609 40.00274519 265.35785774 46.95614394 260.23046875 53.89453125 C256.28584596 59.23857676 252.38030944 64.60910781 248.5 70 C243.45992181 77.00215242 238.35786615 83.95613256 233.23046875 90.89453125 C229.28584489 96.23857821 225.38041885 101.60918549 221.5 107 C214.15996467 117.19356463 206.69545394 127.29401627 199.22949219 137.39550781 C191.22948756 148.22268139 183.29656566 159.09463595 175.42919922 170.01855469 C172.30052793 174.35615226 169.15075206 178.67842467 166 183 C167.2065625 184.3921875 167.2065625 184.3921875 168.4375 185.8125 C171.04584123 188.84545492 173.56028276 191.9416534 176.0625 195.0625 C180.23172351 200.18790294 184.67350912 204.99829832 189.20141602 209.80688477 C192.44474398 213.26974653 195.53392969 216.79241211 198.5 220.5 C203.06041926 226.19631705 208.01734663 231.47319066 213.00390625 236.79296875 C217.38116714 241.4639332 221.5514289 246.29747541 225.69921875 251.171875 C226.71581756 252.36486315 227.73275588 253.55756205 228.75 254.75 C229.522229 255.65552612 229.522229 255.65552612 230.31005859 256.5793457 C233.6910199 260.52485283 237.15102043 264.38119366 240.6875 268.1875 C244.05583447 271.81283208 247.2792202 275.51232393 250.375 279.375 C254.42666217 284.41416406 258.77354616 289.10465771 263.20263672 293.80810547 C267.22343643 298.101263 270.94997081 302.56246351 274.625 307.15625 C277.46464456 310.55635072 280.46388099 313.77586445 283.5 317 C288.10577446 321.89099444 292.4261367 326.90767088 296.625 332.15625 C299.46465214 335.55635979 302.46398283 338.77575674 305.5 342 C310.95515982 347.79650238 316.02630559 353.78288198 321 360 C321.87276907 361.05393477 322.74784027 362.10596664 323.625 363.15625 C324.40875 364.0946875 325.1925 365.033125 326 366 C312.07449333 366.25752141 298.14935828 366.45047336 284.2219553 366.56993389 C277.75430639 366.62727844 271.28825985 366.70501975 264.8215332 366.82983398 C258.57738004 366.94959438 252.33476513 367.01517531 246.08955193 367.04364967 C243.710365 367.0639332 241.33125984 367.10354563 238.95273018 367.16303062 C219.30329143 367.63478096 219.30329143 367.63478096 214.59835815 363.60977173 C212.30507298 360.83351085 210.6528383 358.18632776 209 355 C207.97447632 353.71948939 206.91956015 352.46071222 205.8125 351.25 C205.34650391 350.71052734 204.88050781 350.17105469 204.40039062 349.61523438 C203.70719727 348.81569336 203.70719727 348.81569336 203 348 C198.69878336 343.01189705 194.49510655 337.95773996 190.34375 332.84375 C187.60697951 329.52313514 184.8089705 326.25953218 182 323 C177.70027287 318.01059233 173.49514591 312.95778844 169.34375 307.84375 C166.60697951 304.52313514 163.8089705 301.25953218 161 298 C156.70027287 293.01059233 152.49514591 287.95778844 148.34375 282.84375 C145.60697951 279.52313514 142.8089705 276.25953218 140 273 C135.70027287 268.01059233 131.49514591 262.95778844 127.34375 257.84375 C124.60697951 254.52313514 121.8089705 251.25953218 119 248 C114.70027287 243.01059233 110.49514591 237.95778844 106.34375 232.84375 C103.15405035 228.97358109 99.88484179 225.17400859 96.59960938 221.38476562 C91.95321787 216.00574807 87.50817278 210.50998895 83 205 C82.67 258.13 82.34 311.26 82 366 C54.94 366 27.88 366 0 366 C0 245.22 0 124.44 0 0 Z " fill="#FFFFFF" transform="translate(685,87)"/>
<path d="M0 0 C2.42872899 2.22512067 4.79920416 4.50639501 7.17138672 6.79174805 C7.87650391 7.43370117 8.58162109 8.0756543 9.30810547 8.73706055 C34.63907884 32.47521409 47.62864997 68.3875397 49.10546875 102.40478516 C49.37902261 112.2742298 49.31866853 123.34990261 46.17138672 132.79174805 C-25.43861328 132.79174805 -97.04861328 132.79174805 -170.82861328 132.79174805 C-159.0779329 154.61444019 -145.14105649 170.40531081 -120.82861328 177.79174805 C-101.68277458 182.62246825 -82.1906586 179.69383626 -64.98876953 170.22924805 C-58.25420093 166.14883622 -49.49858198 160.79825257 -45.70671082 153.68804932 C-43.28082547 151.23865073 -41.41400175 151.31969721 -38.06114197 151.29406738 C-36.88510155 151.31563904 -36.88510155 151.31563904 -35.68530273 151.33764648 C-34.85581116 151.33706238 -34.02631958 151.33647827 -33.17169189 151.33587646 C-30.42800143 151.33866478 -27.68539535 151.3697914 -24.94189453 151.40112305 C-23.04046726 151.40858279 -21.13903231 151.41427698 -19.2375946 151.41827393 C-14.2314636 151.43355124 -9.22579633 151.47285114 -4.21984863 151.51708984 C0.88771287 151.55799732 5.99534926 151.57627527 11.10302734 151.59643555 C21.12601763 151.63934335 31.14866362 151.70762007 41.17138672 151.79174805 C40.38476846 153.86408671 39.59552095 155.93542749 38.80517578 158.00634766 C38.36594788 159.15993271 37.92671997 160.31351776 37.47418213 161.50205994 C35.85408991 165.59295407 34.00534338 169.48302234 31.92138672 173.35424805 C31.34614258 174.42848022 31.34614258 174.42848022 30.75927734 175.52441406 C24.97658199 186.06038123 17.41550691 195.08432193 9.17138672 203.79174805 C8.33994141 204.68764648 7.50849609 205.58354492 6.65185547 206.5065918 C-15.68267843 229.82214475 -48.90479684 245.0785549 -80.82861328 248.79174805 C-81.64072266 248.90131836 -82.45283203 249.01088867 -83.28955078 249.1237793 C-122.05128803 253.59628744 -162.81969923 243.67030041 -194.04736328 220.0144043 C-203.34837588 212.58143215 -212.31411045 205.09161148 -219.82861328 195.79174805 C-220.25207031 195.26806641 -220.67552734 194.74438477 -221.11181641 194.20483398 C-244.85024024 164.43787518 -255.33105195 127.22985199 -251.33251953 89.40893555 C-247.6901638 60.68972857 -235.19238018 34.20304316 -215.82861328 12.79174805 C-214.79607422 11.56198242 -214.79607422 11.56198242 -213.74267578 10.30737305 C-208.70138713 4.34013342 -203.02497294 -0.47126657 -196.82861328 -5.20825195 C-196.29993652 -5.61720703 -195.77125977 -6.02616211 -195.2265625 -6.44750977 C-186.30200213 -13.30119225 -177.03376376 -18.50834124 -166.82861328 -23.20825195 C-165.68779297 -23.75352539 -164.54697266 -24.29879883 -163.37158203 -24.8605957 C-150.30232649 -30.83989422 -136.07144551 -34.40959766 -121.82861328 -36.20825195 C-121.00232422 -36.31911133 -120.17603516 -36.4299707 -119.32470703 -36.54418945 C-76.77252397 -41.35161166 -32.10325668 -28.71067248 0 0 Z M-159.37597656 59.05541992 C-164.60567416 65.3064467 -168.25046802 72.05731225 -170.82861328 79.79174805 C-124.95861328 79.79174805 -79.08861328 79.79174805 -31.82861328 79.79174805 C-42.38793003 58.67311454 -55.44980648 44.02141131 -77.45361328 35.41674805 C-107.97596879 25.34659864 -138.37080742 35.69123937 -159.37597656 59.05541992 Z " fill="#FFFFFF" transform="translate(2110.82861328125,206.208251953125)"/>
<path d="M0 0 C0.53093262 0.43844238 1.06186523 0.87688477 1.60888672 1.32861328 C8.62827303 7.21927684 14.4123854 13.76424009 20 21 C20.71671875 21.86625 21.4334375 22.7325 22.171875 23.625 C31.91102699 35.78167198 38.98197341 49.98476477 44 64.6875 C44.39952881 65.84076782 44.39952881 65.84076782 44.80712891 67.01733398 C49.58102623 81.99169518 50.43960669 97.17886424 50.34057617 112.76025391 C50.33972738 114.66436245 50.34020994 116.56847197 50.34190369 118.47257996 C50.34275524 123.580944 50.32526758 128.68909147 50.30418181 133.79740572 C50.28527295 139.15849454 50.28365348 144.51958976 50.28010559 149.88070679 C50.27082649 160.00557964 50.2462694 170.1303539 50.21605712 180.25518358 C50.18238347 191.79345701 50.16599468 203.33173546 50.15097082 214.8700459 C50.11971561 238.580085 50.06703661 262.29003694 50 286 C48.72079013 285.36679003 47.44231022 284.73210528 46.16413879 284.09680176 C45.45210706 283.74352058 44.74007532 283.39023941 44.00646687 283.02625275 C41.60614401 281.79855347 39.33984648 280.42929693 37.07421875 278.96875 C36.20514893 278.41171387 35.3360791 277.85467773 34.44067383 277.28076172 C33.53212646 276.69311035 32.6235791 276.10545898 31.6875 275.5 C29.72675904 274.24188115 27.76581807 272.98407395 25.8046875 271.7265625 C24.34047363 270.78538574 24.34047363 270.78538574 22.84667969 269.82519531 C18.68150989 267.15462847 14.49837801 264.51294771 10.3125 261.875 C8.77861078 260.90760766 7.24475664 259.94015969 5.7109375 258.97265625 C4.9487793 258.49199707 4.18662109 258.01133789 3.40136719 257.51611328 C0.82074806 255.88682853 -1.75776505 254.25424711 -4.3359375 252.62109375 C-5.21032471 252.06760254 -6.08471191 251.51411133 -6.9855957 250.94384766 C-8.66948362 249.87783732 -10.3529338 248.81113512 -12.03588867 247.74365234 C-13.16474487 247.02943115 -13.16474487 247.02943115 -14.31640625 246.30078125 C-14.98099854 245.87966064 -15.64559082 245.45854004 -16.33032227 245.0246582 C-18.02560183 243.95108838 -18.02560183 243.95108838 -20 243 C-20.33 232.77 -20.66 222.54 -21 212 C-23.97 215.3 -26.94 218.6 -30 222 C-44.88005874 238.39328505 -67.36761462 248.90060171 -89.50683594 250.14038086 C-124.79374891 251.37339342 -159.7222947 242.92885411 -188 221 C-188.91523437 220.30519531 -189.83046875 219.61039063 -190.7734375 218.89453125 C-220.39455047 195.59654985 -240.50350736 161.74393302 -245.1015625 124.18847656 C-249.06276353 86.14679957 -238.56088782 49.57585281 -214.50976562 19.82519531 C-189.10284417 -10.88989925 -153.53431656 -30.53213803 -113.71826172 -34.53564453 C-72.15671691 -38.03335309 -32.31964144 -26.69647585 0 0 Z M-146 53 C-146.70769531 53.62648438 -147.41539063 54.25296875 -148.14453125 54.8984375 C-161.75074669 67.64613457 -169.73561461 86.37789721 -170.40258789 104.86987305 C-170.6800168 124.28019659 -164.66038642 141.1557707 -152 156 C-151.3915625 156.80566406 -150.783125 157.61132812 -150.15625 158.44140625 C-138.02117769 172.8408127 -118.89463024 180.13621434 -100.625 181.8125 C-80.65879838 182.76908662 -61.71325945 176.20450139 -46.8125 162.8125 C-30.98607436 147.92079629 -22.43542662 129.18701648 -21.625 107.5 C-22.38887525 86.27063379 -30.97998125 67.3327942 -46.25 52.625 C-75.30552578 27.7377775 -117.41763326 27.16114141 -146 53 Z " fill="#FFFFFF" transform="translate(1241,204)"/>
<path d="M0 0 C27.39 0 54.78 0 83 0 C88.28 11.88 93.56 23.76 99 36 C103.1386711 45.19336214 103.1386711 45.19336214 107.29748535 54.37747192 C109.266328 58.71257257 111.23053931 63.0497726 113.1953125 67.38671875 C113.59415649 68.26686142 113.99300049 69.14700409 114.40393066 70.05381775 C118.32572954 78.71160381 122.22432328 87.37977269 126.12045288 96.0491333 C132.2417304 109.6696497 138.38270516 123.28092255 144.5625 136.875 C144.88682007 137.5886673 145.21114014 138.30233459 145.54528809 139.03762817 C148.68700934 146.05958728 148.68700934 146.05958728 152 153 C160.09109013 135.35794988 168.1571373 117.70682871 176.06982422 99.98388672 C180.59092906 89.87390618 185.2015631 79.80630782 189.82055664 69.74078369 C195.79527678 56.7130762 201.64281503 43.63132629 207.42114258 30.51538086 C210.67415633 23.14363239 213.98788349 15.80457712 217.40625 8.5078125 C217.75046997 7.77045868 218.09468994 7.03310486 218.44934082 6.27340698 C220.87831988 1.12168012 220.87831988 1.12168012 222 0 C224.55589888 -0.09506052 227.08467972 -0.12556761 229.64086914 -0.11352539 C230.84077736 -0.11374443 230.84077736 -0.11374443 232.06492615 -0.1139679 C234.72169665 -0.11326855 237.37839793 -0.10547518 240.03515625 -0.09765625 C241.87218691 -0.09579215 243.70921806 -0.09436821 245.54624939 -0.09336853 C250.39109662 -0.08954275 255.23591408 -0.07971196 260.08074951 -0.06866455 C265.02062578 -0.05845172 269.96050685 -0.05387119 274.90039062 -0.04882812 C284.60027353 -0.03808974 294.30013429 -0.0210126 304 0 C302.17563304 5.7904093 300.09334583 11.31800958 297.515625 16.8125 C297.1835051 17.53088043 296.85138519 18.24926086 296.50920105 18.9894104 C295.79726337 20.52802169 295.08319542 22.06564879 294.36715698 23.60235596 C292.83362804 26.89361814 291.3106115 30.18971136 289.78684998 33.48550415 C289.00236176 35.18202073 288.2173348 36.87828828 287.43177795 38.5743103 C283.72795915 46.57357865 280.07700689 54.59631712 276.4375 62.625 C275.20746867 65.33613615 273.97690674 68.04703113 272.74609375 70.7578125 C272.44067657 71.43052185 272.1352594 72.1032312 271.82058716 72.79632568 C268.22852197 80.70431215 264.61396222 88.60200332 261 96.5 C255.50618485 108.50698827 250.02933889 120.52151663 244.57174683 132.54501343 C241.08328573 140.23016595 237.58634408 147.91123711 234.06640625 155.58203125 C232.73152206 158.49207347 231.39686631 161.40222028 230.0625 164.3125 C229.73105988 165.03531158 229.39961975 165.75812317 229.05813599 166.50283813 C223.58547199 178.44659458 218.24171588 190.44427406 212.93289185 202.46157837 C207.96149231 213.70421727 202.82571586 224.85739936 197.56845093 235.96887207 C192.64089022 246.39232881 187.90149199 256.88817294 183.25 267.4375 C176.68545113 282.32174569 169.90391366 297.09673832 163.03662109 311.84350586 C157.09195886 324.61289794 151.23718544 337.42069813 145.45483398 350.2644043 C144.87353639 351.55127009 144.29223763 352.83813535 143.7109375 354.125 C143.20868652 355.24132812 142.70643555 356.35765625 142.18896484 357.5078125 C141 360 141 360 140 361 C137.38311559 361.09509559 134.792711 361.12556 132.17553711 361.11352539 C131.35609116 361.11367142 130.5366452 361.11381744 129.69236755 361.1139679 C126.97066647 361.11326852 124.24903295 361.10547501 121.52734375 361.09765625 C119.64547259 361.09579216 117.76360094 361.09436821 115.88172913 361.09336853 C110.91851471 361.08954267 105.95532936 361.07971181 100.99212646 361.06866455 C95.93160394 361.0584519 90.87107673 361.05387122 85.81054688 361.04882812 C75.87368512 361.0380896 65.93684497 361.02101236 56 361 C56.77790882 356.71021445 58.18822482 353.05010171 60.03515625 349.12109375 C60.34508514 348.44982956 60.65501404 347.77856537 60.97433472 347.08695984 C61.64634005 345.63240083 62.32066204 344.17891036 62.99703979 342.72637939 C64.83525937 338.77741641 66.65538614 334.82012607 68.4765625 330.86328125 C69.04240303 329.63523773 69.04240303 329.63523773 69.61967468 328.38238525 C73.47484616 319.99960413 77.21098327 311.56555049 80.9375 303.125 C87.61929229 288.00061516 94.48491906 272.96555883 101.45516968 257.97198486 C102.42243142 255.87134591 103.36415455 253.76054807 104.30493164 251.64794922 C105.31109432 249.40918824 106.34592082 247.4324599 107.63061523 245.32470703 C109.12721951 242.68618345 109.81662106 241.03987982 110 238 C108.23452948 232.00407739 105.4417667 226.65151251 102.5625 221.125 C101.757533 219.51539338 100.95638322 217.90387248 100.15893555 216.29052734 C98.54956979 213.04158557 96.92473733 209.80118882 95.28710938 206.56640625 C92.14078704 200.32325869 89.22225364 193.98157939 86.3125 187.625 C85.26669747 185.36408694 84.21982177 183.10366999 83.171875 180.84375 C82.65431641 179.72613281 82.13675781 178.60851562 81.60351562 177.45703125 C78.76688404 171.34151613 75.91472165 165.23325583 73.0625 159.125 C72.77170563 158.50216125 72.48091125 157.87932251 72.18130493 157.23760986 C70.70973588 154.08574 69.23798465 150.93395526 67.76611328 147.78222656 C65.13425654 142.14634968 62.50419121 136.50963683 59.87399292 130.87298584 C58.41606887 127.74862288 56.95802854 124.62431419 55.5 121.5 C54.91666611 120.25000026 54.33333278 119.00000026 53.75 117.75 C53.46125 117.13125 53.1725 116.5125 52.875 115.875 C50.25 110.25 50.25 110.25 49.37492371 108.37483215 C48.79184914 107.12538956 48.20877012 105.87594905 47.62568665 104.62651062 C46.16335755 101.49299931 44.70110693 98.35945143 43.23901367 95.22583008 C40.38630641 89.11199539 37.53242879 82.99871383 34.67578125 76.88671875 C27.73852899 62.03996698 20.82942963 47.18034358 13.9375 32.3125 C13.52795074 31.4292807 13.11840149 30.5460614 12.69644165 29.63607788 C10.4443077 24.77858408 8.19568867 19.91949469 5.95184326 15.0581665 C5.0824071 13.17818851 4.2077358 11.3006339 3.33251953 9.42333984 C2.64391846 7.93568115 2.64391846 7.93568115 1.94140625 6.41796875 C1.55799072 5.59449951 1.1745752 4.77103027 0.77954102 3.92260742 C0 2 0 2 0 0 Z " fill="#FFFFFF" transform="translate(1296,177)"/>
<path d="M0 0 C1.33611328 1.16982422 1.33611328 1.16982422 2.69921875 2.36328125 C16.98054208 15.72605086 26.25885351 34.49915935 28 54 C28 57.96 28 61.92 28 66 C2.92 66 -22.16 66 -48 66 C-48.99 60.06 -48.99 60.06 -50 54 C-53.86532939 46.47827794 -57.96567469 42.49021014 -65.9375 39.61328125 C-76.87799549 36.36014149 -89.12209115 37.19424693 -99.42578125 42.171875 C-104.56699208 45.21712602 -107.53135437 48.00928097 -109.25 53.8125 C-110.40836751 59.10368719 -109.91831642 63.20009982 -107.4375 68.0625 C-93.58868332 84.75209958 -68.4975508 88.17110063 -48.4375 91.4375 C-22.340528 95.73157705 1.91974178 104.65454954 18.29296875 126.54296875 C30.42442862 144.00449794 33.45051446 162.95193092 30.38671875 183.8828125 C26.28229217 206.56900915 12.53767108 225.95264889 -6.09912109 239.20825195 C-21.76538452 249.8358621 -40.27073985 256.49499786 -59 259 C-59.81855469 259.11085938 -60.63710937 259.22171875 -61.48046875 259.3359375 C-93.89307253 262.96457998 -128.44817319 256.58525839 -155 237 C-158.48838314 234.14412589 -161.76714388 231.13982429 -165 228 C-165.63421875 227.42765625 -166.2684375 226.8553125 -166.921875 226.265625 C-172.02560623 221.52321988 -175.53185052 216.00932812 -179 210 C-179.53882813 209.071875 -180.07765625 208.14375 -180.6328125 207.1875 C-187.87138638 193.80159453 -189 182.33914793 -189 167 C-164.25 167 -139.5 167 -114 167 C-113.01 171.29 -112.02 175.58 -111 180 C-106.40789115 188.26579592 -100.47847887 190.92035384 -91.67578125 193.74609375 C-79.7291791 196.85607097 -67.21106554 195.22763352 -56.5 189.125 C-51.31830127 185.76187823 -47.62342624 182.0878484 -46 176 C-45.18126248 170.45402799 -45.4603839 166.12416025 -48.375 161.25 C-52.0584584 156.34736875 -56.54685299 153.649368 -62 151 C-62.77214844 150.62101563 -63.54429688 150.24203125 -64.33984375 149.8515625 C-70.89394507 146.95074561 -77.68241422 145.73969445 -84.69628906 144.43164062 C-119.00218009 138.00383061 -154.49528818 126.4745917 -175.6875 96.75 C-186.69518013 80.60167737 -188.73257642 63.130666 -185.31640625 44.21484375 C-181.86103192 29.61012826 -175.18063709 17.03677842 -165 6 C-164.44957031 5.36964844 -163.89914062 4.73929688 -163.33203125 4.08984375 C-146.83475716 -13.79238668 -121.33861001 -22.40751213 -98 -26 C-96.71416016 -26.19916016 -96.71416016 -26.19916016 -95.40234375 -26.40234375 C-62.09338065 -30.57310585 -25.49173329 -22.49270584 0 0 Z " fill="#FFFFFF" transform="translate(1805,196)"/>
</svg>
